<svg width="173" height="153" viewBox="0 0 173 153" fill="none" xmlns="http://www.w3.org/2000/svg">
<path d="M94.9 148.9C99 144.1 98.5 137 93.8 132.8L49 93.9999L42.2 88.0999H49H160.8C167.1 88.0999 172.2 82.9999 172.2 76.6999C172.2 70.3999 167.1 65.2999 160.8 65.2999H49H42.2L49 59.3999L93.8 20.5999C98.5 16.4999 99.1 9.29995 94.9 4.59995C90.8 -0.200053 83.6 -0.700053 78.9 3.49995L49 29.2999L4.2 68.0999C1.7 70.2999 0.300003 73.3999 0.300003 76.6999C0.300003 79.9999 1.7 83.0999 4.2 85.2999L49 124.2L78.9 150.1C81 152 83.7 152.9 86.4 152.9C89.5 152.9 92.7 151.5 94.9 148.9Z" fill="white"/>
</svg>
