<svg width="56" height="56" viewBox="0 0 56 56" fill="none" xmlns="http://www.w3.org/2000/svg">
<path d="M55.1139 46.9481L36.1513 27.9133L55.1573 9.12425C55.9376 8.34378 55.9376 7.0719 55.1573 6.29143L49.7517 0.857049C49.3761 0.481282 48.8701 0.278931 48.3352 0.278931C47.8006 0.278931 47.2946 0.495725 46.919 0.857049L27.9998 19.5883L9.05174 0.871517C8.67594 0.495725 8.17009 0.293399 7.63533 0.293399C7.10056 0.293399 6.59471 0.510193 6.21892 0.871517L0.827887 6.3059C0.0474425 7.08637 0.0474425 8.35822 0.827887 9.13869L19.8337 27.9278L0.885709 46.9481C0.509943 47.3237 0.293123 47.8297 0.293123 48.3646C0.293123 48.8992 0.495474 49.4052 0.885709 49.7808L6.29118 55.2152C6.68141 55.6054 7.18727 55.8077 7.70759 55.8077C8.21345 55.8077 8.73377 55.6199 9.124 55.2152L27.9998 36.2528L46.8899 55.2009C47.2803 55.5911 47.7861 55.7934 48.3064 55.7934C48.8124 55.7934 49.3327 55.6056 49.7229 55.2009L55.1282 49.7665C55.504 49.3906 55.7209 48.8849 55.7209 48.35C55.7064 47.8297 55.4895 47.3237 55.1139 46.9481Z" fill="white"/>
</svg>
